# xmcd
#
# Track frame offsets:
#	182
#	12590
#	25407
#	45545
#	65685
#	76102
#	87720
#	102665
#	116220
#	132997
#	149880
#	154067
#	166695
#	182105
#
# Disc length: 2567 seconds
#
# Revision: 1
# Processed by: cddbd v1.4PL0 Copyright (c) Steve Scherf et al.
# Submitted via: audiograbber 1.82.00
#
DISCID=cb0a050e
DTITLE=Joe Brown - Come on Joe
DYEAR=1992
DGENRE=Pop-Folk
TTITLE0=Battle Hymn of Love
TTITLE1=He Can't Hold Still
TTITLE2=Come on Joe
TTITLE3=Doin' My Time
TTITLE4=Souvenier D'Alvito
TTITLE5=My Blue Room
TTITLE6=Old Riley
TTITLE7=Honky Tonk Night Time Man
TTITLE8=Youngblood
TTITLE9=Sweet Louisa
TTITLE10=Tenpenny Piece
TTITLE11=It Happens Every Time
TTITLE12=Midnight Special
TTITLE13=Ilfracombe Serenade
EXTD=
EXTT0=
EXTT1=
EXTT2=
EXTT3=
EXTT4=
EXTT5=
EXTT6=
EXTT7=
EXTT8=
EXTT9=
EXTT10=
EXTT11=
EXTT12=
EXTT13=
PLAYORDER=
